<svg xmlns="http://www.w3.org/2000/svg" width="32" height="32" fill="none"><path fill="#F94006" d="M16.844 19.443a2.636 2.636 0 0 1-2.49-1.657 1.506 1.506 0 0 0-1.37-.98h-.11a1.453 1.453 0 0 0-1.367 1.956 5.65 5.65 0 1 0 7.255-7.258 1.453 1.453 0 0 0-1.955 1.37v.11a1.506 1.506 0 0 0 .975 1.374 2.637 2.637 0 0 1 1.661 2.486 2.67 2.67 0 0 1-2.599 2.6Z"/><path fill="#F94006" d="M8.506 17.944a1.458 1.458 0 0 0-1.435-1.246h-.11a1.447 1.447 0 0 0-1.442 1.627A11.3 11.3 0 1 0 18.325 5.519a1.446 1.446 0 0 0-1.627 1.439v.109a1.458 1.458 0 0 0 1.246 1.435 8.286 8.286 0 1 1-9.438 9.442Z"/><path fill="#F94006" d="M9.025 11.157H6.261a1.507 1.507 0 0 0-1.507 1.653 1.552 1.552 0 0 0 1.57 1.36h4.833a3.014 3.014 0 0 0 3.013-3.013V6.325a1.552 1.552 0 0 0-1.36-1.57 1.506 1.506 0 0 0-1.653 1.506v2.764L6.573 4.442a1.507 1.507 0 1 0-2.131 2.131l4.583 4.584Z"/></svg>