<svg xmlns="http://www.w3.org/2000/svg" width="59" height="36" fill="none"><g fill="#840323" clip-path="url(#a)"><path d="M20.09 18a2 2 0 1 1-4 0 2 2 0 0 1 4 0Zm22 0a2 2 0 1 1-4 0 2 2 0 0 1 4 0Z"/><path fill-rule="evenodd" d="M40.09 0c.676 0 1.343.037 2 .11v2.014a16.156 16.156 0 0 0-2-.124 15.924 15.924 0 0 0-9.456 3.091c.482.469.938.963 1.365 1.483A13.94 13.94 0 0 1 40.089 4c.68 0 1.348.048 2 .142v2.024c-.65-.11-1.318-.166-2-.166a11.94 11.94 0 0 0-6.907 2.186c.365.56.7 1.143 1.002 1.744A9.959 9.959 0 0 1 40.09 8c.685 0 1.354.069 2 .2v2.052a8.015 8.015 0 0 0-2-.252 7.964 7.964 0 0 0-5.087 1.825c.255.698.468 1.417.636 2.152A5.985 5.985 0 0 1 40.089 12c.702 0 1.375.12 2 .341v2.194a4 4 0 1 0 2 3.465V.446c8.017 1.819 14 8.988 14 17.554 0 9.941-8.058 18-18 18a17.93 17.93 0 0 1-11-3.751 17.926 17.926 0 0 1-11 3.751 18.13 18.13 0 0 1-2-.11v-2.014c.656.082 1.324.124 2 .124 3.54 0 6.807-1.148 9.456-3.091a18.12 18.12 0 0 1-1.364-1.483A13.94 13.94 0 0 1 18.09 32c-.68 0-1.347-.048-2-.142v-2.024c.65.11 1.319.166 2 .166 2.573 0 4.955-.809 6.908-2.186-.365-.56-.7-1.143-1.002-1.744A9.959 9.959 0 0 1 18.09 28c-.685 0-1.354-.069-2-.2v-2.052a8 8 0 0 0 2 .252 7.964 7.964 0 0 0 5.087-1.825 17.864 17.864 0 0 1-.636-2.152A5.985 5.985 0 0 1 18.09 24c-.701 0-1.375-.12-2-.341v-2.194a4 4 0 1 0-2-3.465v17.554C6.074 33.735.09 26.566.09 18c0-9.941 8.059-18 18-18 4.142 0 7.958 1.4 11 3.751A17.926 17.926 0 0 1 40.09 0Zm6 3.163v2.184c4.73 2.247 8 7.068 8 12.653 0 7.732-6.268 14-14 14s-14-6.268-14-14a8 8 0 1 0-14 5.292V18a6 6 0 0 1 12 0c0 8.837 7.163 16 16 16 8.836 0 16-7.163 16-16 0-6.715-4.137-12.463-10-14.837Zm-34 22.838v2.394A11.995 11.995 0 0 1 6.09 18c0-6.627 5.373-12 12-12s12 5.373 12 12c0 5.523 4.477 10 10 10s10-4.477 10-10a9.985 9.985 0 0 0-4-8V7.604c3.587 2.075 6 5.953 6 10.395 0 6.627-5.373 12-12 12-6.628 0-12-5.373-12-12 0-5.523-4.477-10-10-10s-10 4.477-10 10a9.985 9.985 0 0 0 4 8ZM4.09 18c0 5.585 3.27 10.406 8 12.653v2.184c-5.864-2.374-10-8.122-10-14.837 0-8.837 7.163-16 16-16s16 7.163 16 16a6 6 0 0 0 12 0v-5.292a8 8 0 1 1-14 5.292c0-7.732-6.268-14-14-14s-14 6.268-14 14Z" clip-rule="evenodd"/></g><defs><clipPath id="a"><path fill="#fff" d="M0 0h59v36H0z"/></clipPath></defs></svg>