<svg xmlns="http://www.w3.org/2000/svg" width="32" height="32" fill="none"><path fill="#F94006" d="M10.851 5.574a11.045 11.045 0 0 1 7.738-1.38v.001c1.488.28 2.908.865 4.177 1.72a11.61 11.61 0 0 1 3.21 3.263 12.368 12.368 0 0 1 2.02 7.072 12.342 12.342 0 0 1-2.165 6.725 2.83 2.83 0 0 1-.157 2.74 2.67 2.67 0 0 1-1.163 1.01 2.554 2.554 0 0 1-2.485-.226 11.07 11.07 0 0 1-8.048 1.218c-2.655-.615-5.007-2.19-6.64-4.435l-.316-.457A12.367 12.367 0 0 1 5 15.922a12.362 12.362 0 0 1 1.968-6.597 2.898 2.898 0 0 1-.044-2.918c.28-.495.699-.888 1.2-1.128a2.615 2.615 0 0 1 1.604-.214l.194.044c.336.09.652.249.93.465Zm8.01 15.4a26.75 26.75 0 0 1-1.65.1l-.745.01c-.309 0-.617-.01-.922-.02a3.002 3.002 0 0 1-.98 1.212l-.111.079h-.012l-.028.017c.295 1.029.647 1.856 1.016 2.432.427.668.797.882 1.035.882.142 0 .331-.069.563-.282.232-.214.481-.55.726-1.012.431-.817.823-1.98 1.108-3.418ZM7.595 19.306a9.997 9.997 0 0 0 1.072 2.22l.053.082a9.394 9.394 0 0 0 4.602 3.684c-.363-.712-.682-1.559-.946-2.525h-.007l-.005-.002a2.907 2.907 0 0 1-1.662-.995 3.09 3.09 0 0 1-.677-1.517c-.925-.264-1.74-.581-2.43-.947Zm17.784-.022c-1.2.643-2.738 1.11-4.39 1.406-.287 1.734-.74 3.349-1.375 4.602a9.248 9.248 0 0 0 1.276-.585 2.847 2.847 0 0 1 .047-1.198c.133-.516.409-.98.792-1.337a2.6 2.6 0 0 1 1.366-.666c.387-.06.78-.03 1.152.086.473-.716.854-1.492 1.132-2.308Zm-1.893 4.337a.578.578 0 0 0-.296.092.606.606 0 0 0-.279.55.624.624 0 0 0 .096.303.57.57 0 0 0 .365.245.566.566 0 0 0 .435-.1.604.604 0 0 0 .239-.385l.01-.117a.62.62 0 0 0-.103-.33.552.552 0 0 0-.467-.257Zm-10.424-4.74a.823.823 0 0 0-.643.143l-.001.002a.892.892 0 0 0-.36.582l-.002.003a.928.928 0 0 0 .136.672.872.872 0 0 0 .554.378.825.825 0 0 0 .644-.144l.1-.085a.915.915 0 0 0 .215-.327.94.94 0 0 0 .043-.52.918.918 0 0 0-.243-.46.87.87 0 0 0-.443-.244Zm3.391-5.837a25.152 25.152 0 0 0-2.704.143c-.092.93-.14 1.866-.138 2.803l.007.59.009.24c.52.14.995.425 1.371.829.336.36.578.8.71 1.28.253.009.504.016.756.016.903.001 1.806-.05 2.704-.145.066-.668.111-1.338.129-2.009l.01-.793c0-.233-.006-.479-.013-.725a2.908 2.908 0 0 1-1.365-.863 3.074 3.074 0 0 1-.695-1.357 23.019 23.019 0 0 0-.78-.01Zm6.16.812a2.99 2.99 0 0 1-.863.975c-.123.091-.255.17-.391.24.011.315.012.627.012.926l-.01.774a29.803 29.803 0 0 1-.096 1.711c1.39-.295 2.514-.703 3.305-1.151.447-.254.77-.511.977-.752.207-.241.273-.437.273-.58 0-.243-.21-.63-.866-1.082-.56-.386-1.36-.756-2.341-1.06Zm-10.952-.343c-1.39.295-2.513.704-3.303 1.152-.447.254-.771.51-.978.752-.207.241-.273.437-.273.581 0 .112.046.264.192.458.146.195.378.407.7.624.581.393 1.413.768 2.433 1.073.21-.349.486-.651.814-.887l.007-.005.149-.096a2.52 2.52 0 0 1 .176-.097 28.758 28.758 0 0 1-.022-1.07l.01-.773a30.52 30.52 0 0 1 .095-1.712Zm8.427-2.09a.861.861 0 0 0-.45.136.902.902 0 0 0-.32.355.941.941 0 0 0 .052.933.84.84 0 0 0 1.197.228l.002-.001.068-.054a.9.9 0 0 0 .293-.528v-.005l.014-.089a.935.935 0 0 0-.15-.595.863.863 0 0 0-.308-.28.832.832 0 0 0-.398-.1Zm-.48-4.741c.377.741.703 1.631.97 2.649.582.1 1.123.381 1.548.812.426.432.71.99.82 1.593.94.272 1.767.597 2.461.975a9.995 9.995 0 0 0-1.13-2.321v-.001a9.39 9.39 0 0 0-4.67-3.707Zm-6.321.055a9.27 9.27 0 0 0-1.383.665c.044.305.04.617-.014.922a2.832 2.832 0 0 1-.924 1.646 2.642 2.642 0 0 1-1.722.654l-.001.001a2.6 2.6 0 0 1-.49-.047H8.75c-.035-.007-.07-.018-.104-.027a9.92 9.92 0 0 0-1.019 2.099c1.188-.621 2.69-1.075 4.306-1.363.284-1.712.734-3.306 1.354-4.55Zm3.177-.45c-.141 0-.332.069-.565.283-.232.214-.48.55-.724 1.013-.431.819-.823 1.982-1.1 3.421.798-.072 1.6-.11 2.4-.11l.666.01.356.014a3.01 3.01 0 0 1 1.057-1.177c-.294-1.057-.653-1.92-1.031-2.524-.439-.701-.818-.93-1.059-.93Zm-7.217.86a.634.634 0 0 0-.411.158.673.673 0 0 0-.219.391V7.7a.68.68 0 0 0 .099.495c.094.144.24.244.407.278a.607.607 0 0 0 .473-.106l.001-.001.098-.086a.686.686 0 0 0 .13-.733l-.061-.116h-.001a.635.635 0 0 0-.405-.273.618.618 0 0 0-.111-.01Z"/></svg>