<svg xmlns="http://www.w3.org/2000/svg" width="37" height="41" fill="none"><path fill="#3306F9" fill-rule="evenodd" d="M8.594 11.464v6.196a9.768 9.768 0 0 0 4.606-2.563 9.67 9.67 0 0 0 2.754-5.421c-2.506.24-4.986.836-7.36 1.788ZM4 8.47v14.158C4 30.565 10.492 37 18.5 37S33 30.565 33 22.628V8.47l-2.123-.916a31.262 31.262 0 0 0-24.754 0L4 8.47Zm4.595 14.287c.059 4.53 3.214 8.322 7.464 9.39a9.603 9.603 0 0 0-.743-3.688 9.67 9.67 0 0 0-2.116-3.14 9.77 9.77 0 0 0-4.605-2.562Zm9.761 1.684a14.252 14.252 0 0 0-4.27-4.233 14.34 14.34 0 0 0 4.27-4.232 14.262 14.262 0 0 0 4.27 4.232 14.337 14.337 0 0 0-4.27 4.233Zm2.297 7.773c4.415-.97 7.722-4.86 7.753-9.521a9.77 9.77 0 0 0-4.893 2.627 9.67 9.67 0 0 0-2.116 3.139 9.6 9.6 0 0 0-.743 3.703v.052Zm6.027-15.02c.559.23 1.137.407 1.726.53v-6.26a26.6 26.6 0 0 0-7.65-1.815c.116.791.33 1.567.64 2.309a9.67 9.67 0 0 0 2.117 3.14 9.769 9.769 0 0 0 3.167 2.097Z" clip-rule="evenodd"/></svg>