<svg xmlns="http://www.w3.org/2000/svg" width="32" height="32" fill="none"><path fill="#F94006" d="M27.92 5.41c-.44-1.72-2.16-2.76-3.88-2.32-.08 0-.16.04-.24.08l-1.16.4c-1.2.4-2.56.32-3.68-.28l-1.52-.76c-.92-.44-1.96-.44-2.88 0l-1.52.76c-1.16.56-2.48.68-3.68.28l-1.16-.4c-1.68-.56-3.48.36-4.04 2.04-.04.08-.04.16-.08.24l-.04.08c-.56 2.32-.84 4.68-.84 7.08.08 2.12.6 4.2 1.48 6.12 1.36 2.96 4.24 6.88 10.28 8.88.64.2 1.36.2 2.04 0 6.04-2 8.92-5.96 10.28-8.88.92-1.92 1.4-4 1.48-6.12 0-2.4-.28-4.76-.88-7.08l.04-.12ZM16 24.61c-7.4-2.48-9.12-8.28-9.48-10.8h18.96c-.36 2.52-2.08 8.32-9.48 10.8Zm-9.52-14c.12-1.44.36-2.88.68-4.32l.04-.08 1.16.4c2.04.68 4.24.52 6.12-.44L16 5.41l1.52.76c1.92.96 4.12 1.12 6.12.44l1.16-.4.04.08c.36 1.4.6 2.84.68 4.32H6.48Z"/></svg>