<svg xmlns="http://www.w3.org/2000/svg" width="36" height="40" fill="none"><g clip-path="url(#a)"><path fill="#35977D" fill-rule="evenodd" d="M29.955 2.435V0H35.5v22.435C35.5 32.135 27.665 40 18 40 8.743 40 1.164 32.785.541 23.652H.5V0h5.545v2.435H15.4V0h5.544v2.435h9.01Zm0 20V19.02a22.745 22.745 0 0 1-2.001 1.836c-2.342 1.905-5.093 3.394-8.085 4.403a29.505 29.505 0 0 1-9.401 1.524H6.853C8.588 31.26 12.925 34.435 18 34.435c6.603 0 11.955-5.373 11.955-12Zm-14.028-4.191a17.477 17.477 0 0 1-3.542 2.898 23.743 23.743 0 0 0 5.719-1.159c2.409-.812 4.566-1.992 6.358-3.45 1.791-1.458 3.174-3.157 4.102-4.982A12.774 12.774 0 0 0 29.767 8h-9a19.06 19.06 0 0 1-1.12 4.323 18.371 18.371 0 0 1-3.72 5.92Zm-9.882-.43V8h9.103a13.433 13.433 0 0 1-.665 2.297 12.802 12.802 0 0 1-2.59 4.128 11.757 11.757 0 0 1-3.819 2.718 11.18 11.18 0 0 1-2.03.672Z" clip-rule="evenodd"/></g><defs><clipPath id="a"><path fill="#fff" d="M.5 0h35v40H.5z"/></clipPath></defs></svg>