<svg xmlns="http://www.w3.org/2000/svg" width="44" height="41" fill="none"><g clip-path="url(#a)"><path fill="#46403F" fill-rule="evenodd" d="M23.829 8.97a10.582 10.582 0 0 0-7.464 3.083 10.525 10.525 0 0 0-3.02 6.209c-.088.753-.5 1.448-1.18 1.787l-2.007 1c-.678.339-1.124 1.034-1.034 1.788a10.504 10.504 0 0 0 3.018 6.208 10.558 10.558 0 0 0 7.464 3.083 10.581 10.581 0 0 0 7.464-3.083 10.525 10.525 0 0 0 3.019-6.209c.09-.753.502-1.448 1.18-1.787l2.008-1c.678-.339 1.123-1.034 1.034-1.787a10.502 10.502 0 0 0-3.018-6.209 10.56 10.56 0 0 0-7.464-3.083Zm4.876 8.512c.106.256.192.52.256.788.177.738-.284 1.44-.962 1.779l-2.007 1c-.679.339-1.076 1.041-1.253 1.779a5.255 5.255 0 0 1-1.4 2.495 5.278 5.278 0 0 1-3.733 1.542 5.291 5.291 0 0 1-3.732-1.542 5.26 5.26 0 0 1-1.4-2.495c-.177-.738.284-1.44.962-1.779l2.007-1c.679-.339 1.076-1.041 1.253-1.779a5.264 5.264 0 0 1 3.113-3.636 5.291 5.291 0 0 1 5.752 1.14c.49.49.878 1.07 1.144 1.708Z" clip-rule="evenodd"/><path fill="#46403F" fill-rule="evenodd" d="M23.829.55A19.003 19.003 0 0 0 10.394 6.1a18.944 18.944 0 0 0-5.525 12.16c-.05.756-.47 1.45-1.148 1.789l-2.007 1c-.679.339-1.117 1.033-1.067 1.79A18.944 18.944 0 0 0 6.17 35a19.004 19.004 0 0 0 6.164 4.107 19.045 19.045 0 0 0 20.706-4.108 18.945 18.945 0 0 0 4.12-6.147 18.902 18.902 0 0 0 1.405-6.014c.05-.756.47-1.45 1.148-1.789l2.007-1c.679-.339 1.117-1.033 1.067-1.79a18.905 18.905 0 0 0-1.406-6.013 18.945 18.945 0 0 0-4.118-6.147A19.004 19.004 0 0 0 31.1 1.99 19.046 19.046 0 0 0 23.829.55Zm9.444 22.288c.068-.756.484-1.45 1.163-1.789l2.007-1c.679-.339 1.12-1.033 1.052-1.788a13.657 13.657 0 0 0-3.963-8.44 13.755 13.755 0 0 0-19.406 0 13.682 13.682 0 0 0-3.963 8.44c-.07.755-.486 1.45-1.164 1.788l-2.007 1c-.679.339-1.12 1.033-1.052 1.789a13.653 13.653 0 0 0 3.963 8.44 13.755 13.755 0 0 0 19.406 0 13.68 13.68 0 0 0 3.964-8.44Z" clip-rule="evenodd"/><path fill="#706866" d="M42.824 19.068h-5.28a.718.718 0 0 1-.403.633l-3.402 1.696a.764.764 0 0 0-.416.634h5.28a.758.758 0 0 1 .414-.634l3.402-1.696c.242-.12.4-.364.405-.633ZM.612 22.03h5.28a.718.718 0 0 1 .403-.633l3.402-1.696a.765.765 0 0 0 .416-.633h-5.28a.758.758 0 0 1-.414.633l-3.402 1.696a.724.724 0 0 0-.405.634Zm12.67-2.962a.772.772 0 0 1-.419.633l-3.402 1.696a.712.712 0 0 0-.4.634h5.286a.685.685 0 0 1 .392-.634l3.402-1.696a.805.805 0 0 0 .427-.633h-5.286Zm15.806 0a.685.685 0 0 1-.392.633l-3.402 1.696a.805.805 0 0 0-.427.634h5.287a.772.772 0 0 1 .418-.634l3.402-1.696a.712.712 0 0 0 .4-.633h-5.286Z"/></g><defs><clipPath id="a"><path fill="#fff" d="M.5 0h43v41H.5z"/></clipPath></defs></svg>