<svg xmlns="http://www.w3.org/2000/svg" width="49" height="40" fill="none"><path fill="url(#a)" d="M37.395 40C43.827 39.869 49 34.607 49 28.139c0-3.146-1.249-6.163-3.472-8.387L25.79 0v12.277c0 2.053.815 4.022 2.266 5.474l4.623 4.627.013.013 7.753 7.758a.645.645 0 0 1-.912.912l-2.672-2.674H12.139l-2.672 2.674a.644.644 0 1 1-.912-.912l7.753-7.758.012-.013 4.624-4.627a7.744 7.744 0 0 0 2.267-5.474V0L3.47 19.752A11.865 11.865 0 0 0 0 28.139C0 34.607 5.173 39.869 11.605 40h25.79Z"/><defs><linearGradient id="a" x1="24.5" x2="24.5" y1="0" y2="40" gradientUnits="userSpaceOnUse"><stop stop-color="#FFB86D"/><stop offset=".833" stop-color="#FF0A0A"/></linearGradient></defs></svg>