<svg xmlns="http://www.w3.org/2000/svg" width="71" height="55" fill="none"><g clip-path="url(#a)"><path fill="#9ED2E6" d="M62.883 50.1c.988 0 1.523.735 1.523 1.643v1.723h-.662V51.85c0-.594-.293-1.115-.908-1.115-.594 0-.894.5-.894 1.102v1.629h-.661v-1.63c0-.6-.3-1.101-.909-1.101-.614 0-.888.52-.888 1.115v1.616h-.66V51.75c0-.915.52-1.65 1.502-1.65.654 0 1.128.334 1.295.842.18-.508.641-.841 1.262-.841Zm-6.385 2.805c.607 0 .941-.528.941-1.135v-1.576h.661v1.656c0 .948-.574 1.696-1.602 1.696-1.015 0-1.59-.755-1.59-1.703v-1.65h.661v1.584c0 .6.328 1.128.929 1.128Zm-3.454.634c-.608 0-1.075-.24-1.33-.727l.508-.28c.167.326.434.447.795.447.374 0 .661-.154.661-.441 0-.688-1.876-.167-1.876-1.416 0-.574.507-.995 1.222-.995.607 0 1.021.28 1.228.66l-.507.289c-.14-.288-.407-.388-.708-.388-.307 0-.574.16-.574.42 0 .669 1.876.18 1.876 1.416 0 .62-.6 1.015-1.295 1.015Zm-4.539 1.429h-.662v-3.145c0-.975.755-1.71 1.743-1.71a1.711 1.711 0 0 1 1.736 1.71c0 .989-.714 1.723-1.71 1.723-.44 0-.84-.194-1.108-.487v1.91l.001-.001Zm1.081-2.043c.608 0 1.075-.5 1.075-1.095 0-.601-.467-1.088-1.075-1.088-.614 0-1.081.487-1.081 1.088 0 .594.467 1.095 1.081 1.095Zm-3.28-2.731h.66v3.272h-.66v-3.272Zm8.917-2.986c-5.051 0-8.904-3.885-8.904-8.613 0-4.694 3.853-8.58 8.904-8.58 5.05 0 8.904 3.886 8.904 8.58 0 4.728-3.853 8.613-8.904 8.613Zm0-5.472c1.845 0 3.076-1.425 3.076-3.108 0-1.716-1.23-3.141-3.076-3.141s-3.076 1.425-3.076 3.14c0 1.684 1.23 3.109 3.076 3.109ZM35.314 54.655c-4.015 0-6.93-1.78-8.419-4.954l4.825-2.59c.518 1.1 1.49 2.234 3.497 2.234 2.104 0 3.497-1.328 3.659-3.66-.778.68-2.008 1.199-3.853 1.199-4.501 0-8.128-3.464-8.128-8.321 0-4.695 3.854-8.515 8.905-8.515 5.18 0 8.904 3.594 8.904 8.547v6.41c0 5.829-4.048 9.65-9.39 9.65Zm.388-13.243c1.749 0 3.076-1.198 3.076-2.98 0-1.747-1.327-2.913-3.076-2.913-1.716 0-3.075 1.166-3.075 2.914 0 1.78 1.36 2.979 3.075 2.979Zm-18.693 5.796c-5.051 0-8.904-3.885-8.904-8.613 0-4.694 3.853-8.58 8.904-8.58 5.05 0 8.904 3.886 8.904 8.58 0 4.728-3.853 8.613-8.904 8.613Zm0-5.472c1.845 0 3.076-1.425 3.076-3.108 0-1.716-1.23-3.141-3.076-3.141s-3.076 1.425-3.076 3.14c0 1.684 1.23 3.109 3.076 3.109ZM0 23.086h5.828v23.636H0V23.086ZM70.734 32a2 2 0 1 1-4 0 2 2 0 0 1 4 0Z"/><path fill="#FFEBA3" fill-rule="evenodd" d="M54.79 9.665a33 33 0 0 1 9.616 21.525 11.866 11.866 0 0 0-6.561-3.9 27 27 0 0 0-50.1-7.205h-6.66A33 33 0 0 1 54.79 9.665Z" clip-rule="evenodd"/><path fill="#F5BD7A" fill-rule="evenodd" d="M50.547 13.908a27 27 0 0 1 7.298 13.382 12.538 12.538 0 0 0-6.119.223 20.999 20.999 0 0 0-40.81 1.108c-.75.432-1.45.945-2.088 1.53V20.084H7.744a27 27 0 0 1 42.803-6.177Z" clip-rule="evenodd"/><path fill="#DB3D3D" d="M46.306 30.887a15 15 0 0 0-28.613-3.856c3.56.192 6.67 1.873 8.708 4.411 2.172-2.69 5.563-4.396 9.4-4.396 4.11 0 7.641 1.802 9.766 4.738.231-.31.478-.61.74-.897Z"/><path fill="#E77E7E" fill-rule="evenodd" d="M51.725 27.513a11.85 11.85 0 0 0-5.42 3.375 15 15 0 0 0-28.612-3.856 12.79 12.79 0 0 0-.684-.018c-2.237 0-4.317.586-6.093 1.607a21 21 0 0 1 40.81-1.108h-.001Z" clip-rule="evenodd"/></g><defs><clipPath id="a"><path fill="#fff" d="M0 0h71v55H0z"/></clipPath></defs></svg>