<svg xmlns="http://www.w3.org/2000/svg" width="40" height="40" fill="none"><path fill="url(#a)" d="M20 0c11.046 0 20 8.954 20 20v14a6 6 0 0 1-6 6H21v-8.774c0-2.002.122-4.076 1.172-5.78a10 10 0 0 1 6.904-4.627l.383-.062a.8.8 0 0 0 0-1.514l-.383-.062a10 10 0 0 1-8.257-8.257l-.062-.383a.8.8 0 0 0-1.514 0l-.062.383a9.999 9.999 0 0 1-4.627 6.904C12.85 18.878 10.776 19 8.774 19H.024C.547 8.419 9.29 0 20 0Z"/><path fill="url(#b)" d="M20 0c11.046 0 20 8.954 20 20v14a6 6 0 0 1-6 6H21v-8.774c0-2.002.122-4.076 1.172-5.78a10 10 0 0 1 6.904-4.627l.383-.062a.8.8 0 0 0 0-1.514l-.383-.062a10 10 0 0 1-8.257-8.257l-.062-.383a.8.8 0 0 0-1.514 0l-.062.383a9.999 9.999 0 0 1-4.627 6.904C12.85 18.878 10.776 19 8.774 19H.024C.547 8.419 9.29 0 20 0Z" style="mix-blend-mode:lighten"/><path fill="url(#c)" d="M20 0c11.046 0 20 8.954 20 20v14a6 6 0 0 1-6 6H21v-8.774c0-2.002.122-4.076 1.172-5.78a10 10 0 0 1 6.904-4.627l.383-.062a.8.8 0 0 0 0-1.514l-.383-.062a10 10 0 0 1-8.257-8.257l-.062-.383a.8.8 0 0 0-1.514 0l-.062.383a9.999 9.999 0 0 1-4.627 6.904C12.85 18.878 10.776 19 8.774 19H.024C.547 8.419 9.29 0 20 0Z" style="mix-blend-mode:lighten"/><path fill="url(#d)" d="M0 21h8.774c2.002 0 4.076.122 5.78 1.172a10.02 10.02 0 0 1 3.274 3.274C18.878 27.15 19 29.224 19 31.226V40H6a6 6 0 0 1-6-6V21Z"/><path fill="url(#e)" d="M0 21h8.774c2.002 0 4.076.122 5.78 1.172a10.02 10.02 0 0 1 3.274 3.274C18.878 27.15 19 29.224 19 31.226V40H6a6 6 0 0 1-6-6V21Z" style="mix-blend-mode:lighten"/><path fill="url(#f)" d="M0 21h8.774c2.002 0 4.076.122 5.78 1.172a10.02 10.02 0 0 1 3.274 3.274C18.878 27.15 19 29.224 19 31.226V40H6a6 6 0 0 1-6-6V21Z" style="mix-blend-mode:lighten"/><path fill="url(#g)" d="M40 2a2 2 0 1 1-4 0 2 2 0 0 1 4 0Z"/><path fill="url(#h)" d="M40 2a2 2 0 1 1-4 0 2 2 0 0 1 4 0Z" style="mix-blend-mode:lighten"/><path fill="url(#i)" d="M40 2a2 2 0 1 1-4 0 2 2 0 0 1 4 0Z" style="mix-blend-mode:lighten"/><path fill="#fff" fill-rule="evenodd" d="m29.704 21.73-.466.076a9 9 0 0 0-6.214 4.164C22.136 27.411 22 29.223 22 31.226V39h12a5 5 0 0 0 5-5V20C39 9.507 30.493 1 20 1 10.182 1 2.103 8.447 1.104 18h7.67c2.004 0 3.815-.136 5.256-1.024a8.999 8.999 0 0 0 4.164-6.214l.076-.466.027-.08a1.8 1.8 0 0 1 3.406 0l.027.08.076.466a9 9 0 0 0 7.432 7.432l.466.076.08.027a1.8 1.8 0 0 1 0 3.406l-.08.027ZM.024 19c.017-.336.042-.669.075-1C1.102 7.893 9.629 0 20 0c11.046 0 20 8.954 20 20v14a6 6 0 0 1-6 6H21v-8.774c0-2.002.122-4.076 1.172-5.78a10 10 0 0 1 6.904-4.627l.383-.062a.8.8 0 0 0 0-1.514l-.383-.062a10 10 0 0 1-8.257-8.257l-.062-.383a.8.8 0 0 0-1.514 0l-.062.383a9.999 9.999 0 0 1-4.627 6.904C12.85 18.878 10.776 19 8.774 19H.024Zm8.75 3H1v12a5 5 0 0 0 5 5h12v-7.774c0-2.003-.136-3.815-1.024-5.256a9.02 9.02 0 0 0-2.946-2.946C12.589 22.136 10.778 22 8.774 22Zm0-1c2.002 0 4.076.122 5.78 1.172a10.02 10.02 0 0 1 3.274 3.274C18.878 27.15 19 29.224 19 31.226V40H6a6 6 0 0 1-6-6V21h8.774Z" clip-rule="evenodd"/><path fill="url(#j)" fill-rule="evenodd" d="m29.704 21.73-.466.076a9 9 0 0 0-6.214 4.164C22.136 27.411 22 29.223 22 31.226V39h12a5 5 0 0 0 5-5V20C39 9.507 30.493 1 20 1 10.182 1 2.103 8.447 1.104 18h7.67c2.004 0 3.815-.136 5.256-1.024a8.999 8.999 0 0 0 4.164-6.214l.076-.466.027-.08a1.8 1.8 0 0 1 3.406 0l.027.08.076.466a9 9 0 0 0 7.432 7.432l.466.076.08.027a1.8 1.8 0 0 1 0 3.406l-.08.027ZM.024 19c.017-.336.042-.669.075-1C1.102 7.893 9.629 0 20 0c11.046 0 20 8.954 20 20v14a6 6 0 0 1-6 6H21v-8.774c0-2.002.122-4.076 1.172-5.78a10 10 0 0 1 6.904-4.627l.383-.062a.8.8 0 0 0 0-1.514l-.383-.062a10 10 0 0 1-8.257-8.257l-.062-.383a.8.8 0 0 0-1.514 0l-.062.383a9.999 9.999 0 0 1-4.627 6.904C12.85 18.878 10.776 19 8.774 19H.024Zm8.75 3H1v12a5 5 0 0 0 5 5h12v-7.774c0-2.003-.136-3.815-1.024-5.256a9.02 9.02 0 0 0-2.946-2.946C12.589 22.136 10.778 22 8.774 22Zm0-1c2.002 0 4.076.122 5.78 1.172a10.02 10.02 0 0 1 3.274 3.274C18.878 27.15 19 29.224 19 31.226V40H6a6 6 0 0 1-6-6V21h8.774Z" clip-rule="evenodd" style="mix-blend-mode:exclusion"/><path fill="url(#k)" fill-rule="evenodd" d="m29.704 21.73-.466.076a9 9 0 0 0-6.214 4.164C22.136 27.411 22 29.223 22 31.226V39h12a5 5 0 0 0 5-5V20C39 9.507 30.493 1 20 1 10.182 1 2.103 8.447 1.104 18h7.67c2.004 0 3.815-.136 5.256-1.024a8.999 8.999 0 0 0 4.164-6.214l.076-.466.027-.08a1.8 1.8 0 0 1 3.406 0l.027.08.076.466a9 9 0 0 0 7.432 7.432l.466.076.08.027a1.8 1.8 0 0 1 0 3.406l-.08.027ZM.024 19c.017-.336.042-.669.075-1C1.102 7.893 9.629 0 20 0c11.046 0 20 8.954 20 20v14a6 6 0 0 1-6 6H21v-8.774c0-2.002.122-4.076 1.172-5.78a10 10 0 0 1 6.904-4.627l.383-.062a.8.8 0 0 0 0-1.514l-.383-.062a10 10 0 0 1-8.257-8.257l-.062-.383a.8.8 0 0 0-1.514 0l-.062.383a9.999 9.999 0 0 1-4.627 6.904C12.85 18.878 10.776 19 8.774 19H.024Zm8.75 3H1v12a5 5 0 0 0 5 5h12v-7.774c0-2.003-.136-3.815-1.024-5.256a9.02 9.02 0 0 0-2.946-2.946C12.589 22.136 10.778 22 8.774 22Zm0-1c2.002 0 4.076.122 5.78 1.172a10.02 10.02 0 0 1 3.274 3.274C18.878 27.15 19 29.224 19 31.226V40H6a6 6 0 0 1-6-6V21h8.774Z" clip-rule="evenodd"/><defs><radialGradient id="a" cx="0" cy="0" r="1" gradientTransform="matrix(28.00021 36.49982 -155.85142 119.55875 9.5 2)" gradientUnits="userSpaceOnUse"><stop stop-color="#4CE0F0"/><stop offset=".193" stop-color="#4C70F0"/><stop offset="1" stop-opacity="0"/></radialGradient><radialGradient id="b" cx="0" cy="0" r="1" gradientTransform="matrix(34.50003 -27.50003 117.42263 147.31203 1.5 38.5)" gradientUnits="userSpaceOnUse"><stop stop-color="#E6D58C"/><stop offset=".193" stop-color="#D5723B"/><stop offset="1" stop-color="#312935"/></radialGradient><radialGradient id="c" cx="0" cy="0" r="1" gradientTransform="rotate(146.31 17.138 10.101) scale(28.8444 39.4368)" gradientUnits="userSpaceOnUse"><stop stop-color="#EBF5EE"/><stop offset=".245" stop-color="#4CC9BB"/><stop offset="1" stop-color="#4F5EAF"/></radialGradient><radialGradient id="d" cx="0" cy="0" r="1" gradientTransform="matrix(28.00021 36.49982 -155.85142 119.55875 9.5 2)" gradientUnits="userSpaceOnUse"><stop stop-color="#4CE0F0"/><stop offset=".193" stop-color="#4C70F0"/><stop offset="1" stop-opacity="0"/></radialGradient><radialGradient id="e" cx="0" cy="0" r="1" gradientTransform="matrix(34.50003 -27.50003 117.42263 147.31203 1.5 38.5)" gradientUnits="userSpaceOnUse"><stop stop-color="#E6D58C"/><stop offset=".193" stop-color="#D5723B"/><stop offset="1" stop-color="#312935"/></radialGradient><radialGradient id="f" cx="0" cy="0" r="1" gradientTransform="rotate(146.31 17.138 10.101) scale(28.8444 39.4368)" gradientUnits="userSpaceOnUse"><stop stop-color="#EBF5EE"/><stop offset=".245" stop-color="#4CC9BB"/><stop offset="1" stop-color="#4F5EAF"/></radialGradient><radialGradient id="g" cx="0" cy="0" r="1" gradientTransform="matrix(28.00021 36.49982 -155.85142 119.55875 9.5 2)" gradientUnits="userSpaceOnUse"><stop stop-color="#4CE0F0"/><stop offset=".193" stop-color="#4C70F0"/><stop offset="1" stop-opacity="0"/></radialGradient><radialGradient id="h" cx="0" cy="0" r="1" gradientTransform="matrix(34.50003 -27.50003 117.42263 147.31203 1.5 38.5)" gradientUnits="userSpaceOnUse"><stop stop-color="#E6D58C"/><stop offset=".193" stop-color="#D5723B"/><stop offset="1" stop-color="#312935"/></radialGradient><radialGradient id="i" cx="0" cy="0" r="1" gradientTransform="rotate(146.31 17.138 10.101) scale(28.8444 39.4368)" gradientUnits="userSpaceOnUse"><stop stop-color="#EBF5EE"/><stop offset=".245" stop-color="#4CC9BB"/><stop offset="1" stop-color="#4F5EAF"/></radialGradient><linearGradient id="j" x1="-.5" x2="16.5" y1="16.5" y2="22.5" gradientUnits="userSpaceOnUse"><stop stop-color="#0046F9"/><stop offset=".167" stop-color="#16DBF6"/><stop offset=".278" stop-color="#fff"/><stop offset=".416" stop-color="#FFE713"/><stop offset=".552" stop-color="#FF7917"/><stop offset=".692" stop-color="#FB0000"/><stop offset=".828" stop-color="#B30000"/><stop offset="1" stop-color="#DCCDC4"/></linearGradient><linearGradient id="k" x1="36.5" x2="21.5" y1="30" y2="22.5" gradientUnits="userSpaceOnUse"><stop stop-color="#5CE0F2"/><stop offset="1" stop-opacity="0"/></linearGradient></defs></svg>