<svg xmlns="http://www.w3.org/2000/svg" width="51" height="39" fill="none"><g fill="#F94006" clip-path="url(#a)"><path d="M12.446-1 22.78 7.829c.614.524.968 1.293.968 2.103v6.654L13.413 7.757a2.766 2.766 0 0 1-.967-2.103V-1Zm0 40 10.334-8.829a2.766 2.766 0 0 0 .968-2.103v-6.654l-10.335 8.829a2.766 2.766 0 0 0-.967 2.103V39ZM.117 8.31l10.194 8.66c.494.42 1.12.65 1.767.65h8.22L10.13 8.963a2.728 2.728 0 0 0-1.77-.652H.118Zm0 21.38 10.131-8.656a2.728 2.728 0 0 1 1.773-.655h8.302l-10.194 8.66c-.494.42-1.12.65-1.767.65H.117ZM37.788-1 27.454 7.829a2.766 2.766 0 0 0-.967 2.103v6.654l10.334-8.829a2.767 2.767 0 0 0 .967-2.103V-1Zm0 40-10.334-8.829a2.766 2.766 0 0 1-.967-2.103v-6.654l10.334 8.829c.614.524.967 1.293.967 2.103V39Zm12.33-30.69-10.194 8.66c-.494.42-1.12.65-1.767.65h-8.22l10.168-8.657a2.728 2.728 0 0 1 1.77-.652h8.243Zm0 21.38-10.131-8.656a2.729 2.729 0 0 0-1.773-.655h-8.302l10.194 8.66c.494.42 1.12.65 1.766.65h8.246Z"/></g><defs><clipPath id="a"><path fill="#fff" d="M0-1h51v40H0z"/></clipPath></defs></svg>