<svg xmlns="http://www.w3.org/2000/svg" width="59" height="38" fill="none"><path fill="#FC5800" d="M11.72.398c5.523 0 10 4.477 10 10v17.5a.833.833 0 1 0 1.667 0v-17.5c0-5.523 4.477-10 10-10H46.72c6.444 0 11.667 5.223 11.667 11.667v4.18a11.67 11.67 0 0 1-2.85 7.641L44.115 37.065H30.882L47.98 17.337l.093-.118c.204-.282.314-.623.314-.975v-4.18c0-.92-.746-1.666-1.667-1.666H35.054v-.833a.833.833 0 1 0-1.667 0v17.5c0 5.523-4.477 10-10 10H21.72c-5.522 0-10-4.477-10-10v-17.5a.833.833 0 0 0-1.666 0v27.5h-10V10.398c0-5.523 4.477-10 10-10h1.666Z"/></svg>