<svg xmlns="http://www.w3.org/2000/svg" width="60" height="40" fill="none"><g fill="#4EAE04" clip-path="url(#a)"><path d="M39.2 32c6.627 0 12-5.373 12-12s-5.373-12-12-12c-6.22 0-11.334 4.732-11.94 10.793a22.463 22.463 0 0 0-7.813-1.947C20.96 7.3 29.227 0 39.2 0c11.046 0 20 8.954 20 20 0 10.643-8.313 19.344-18.8 19.965V40H27.22v-1.745c0-2.268-.936-4.473-2.65-6.121-1.718-1.654-4.08-2.607-6.57-2.607s-4.852.953-6.57 2.607c-1.714 1.648-2.65 3.853-2.65 6.12V40H0v-1.788c0-4.675 1.94-9.121 5.333-12.372 3.285-3.147 7.672-4.93 12.238-5.035a18.566 18.566 0 0 1 .761-.002c4.601.082 9.027 1.868 12.335 5.037A17.367 17.367 0 0 1 34.816 32H39.2Z"/><path d="M21.677 34.924c.975.848 1.523 1.998 1.523 3.198V40H12.8v-1.878c0-1.2.548-2.35 1.523-3.198.975-.848 2.298-1.324 3.677-1.324 1.38 0 2.702.476 3.677 1.324Zm22.105-16.887a2.618 2.618 0 0 1-2.618-2.618v-.655a1.964 1.964 0 0 0-3.928 0v.655a2.618 2.618 0 0 1-2.618 2.618h-.654a1.964 1.964 0 0 0 0 3.927h.654a2.618 2.618 0 0 1 2.618 2.619v.654a1.964 1.964 0 1 0 3.928 0v-.654a2.618 2.618 0 0 1 2.618-2.619h.654a1.964 1.964 0 1 0 0-3.927h-.654ZM11.2 3.2a3.2 3.2 0 0 0 3.2 3.2h.8a2.4 2.4 0 1 1 0 4.8h-.8a3.2 3.2 0 0 0-3.2 3.2v.8a2.4 2.4 0 1 1-4.8 0v-.8a3.2 3.2 0 0 0-3.2-3.2h-.8a2.4 2.4 0 1 1 0-4.8h.8a3.2 3.2 0 0 0 3.2-3.2v-.8a2.4 2.4 0 0 1 4.8 0v.8Z"/></g><defs><clipPath id="a"><path fill="#fff" d="M0 0h60v40H0z"/></clipPath></defs></svg>